<svg width="32" height="32" viewBox="0 0 32 32" fill="none" xmlns="http://www.w3.org/2000/svg">
<path fill-rule="evenodd" clip-rule="evenodd" d="M16.0254 31.2484C24.6545 31.2484 31.6497 24.2532 31.6497 15.6242C31.6497 6.99519 24.6545 0 16.0254 0C7.39644 0 0.401245 6.99519 0.401245 15.6242C0.401245 24.2532 7.39644 31.2484 16.0254 31.2484ZM22.8231 7.96883C23.5421 7.74687 23.9615 7.76705 24.2211 7.98901C24.5207 8.25132 24.4807 8.71542 24.4208 9.11899C24.4125 9.1775 24.4008 9.24985 24.3871 9.33462C24.3677 9.4545 24.3443 9.59921 24.3209 9.76469C24.2654 10.0788 24.1991 10.4692 24.1233 10.9156C23.9263 12.0755 23.6652 13.6135 23.3623 15.1725C22.923 17.3719 22.3837 19.9951 21.7047 22.9815C21.6648 23.1227 21.6448 23.2034 21.6448 23.2236C21.5449 23.7684 21.2454 24.172 20.826 24.3132C20.7062 24.3536 20.5863 24.3738 20.4665 24.3738C20.107 24.3738 19.7076 24.1922 19.3281 23.8693L19.3082 23.8491C19.1484 23.6877 17.4309 22.2954 15.8531 21.0443C15.4937 21.4277 14.2155 22.7797 13.4766 23.385C13.3368 23.4859 13.177 23.5464 13.0372 23.5464C12.9373 23.5464 12.8575 23.5263 12.7975 23.4859C12.7576 23.4657 12.7177 23.4254 12.6977 23.4052C12.5779 23.3245 12.3382 23.1227 12.2583 22.7595C12.2125 22.5743 11.5122 20.1809 11.0961 18.759C10.9683 18.3222 10.8673 17.9771 10.8204 17.8158C10.2412 17.6342 7.50518 16.706 6.88607 16.3832C6.3069 16.1208 6.00733 15.798 6.0273 15.4348C6.06725 14.8698 6.88607 14.5066 7.26552 14.3855C7.60503 14.2241 10.4609 12.9327 13.9759 11.4597C17.8902 9.82523 22.3238 8.13025 22.8231 7.96883ZM20.7661 11.379L11.2398 17.7553C11.3359 18.0791 11.5735 18.8932 11.8287 19.7678C12.2096 21.0733 12.6299 22.5136 12.6777 22.6586V22.6788C12.6917 22.5267 12.7088 22.3418 12.728 22.1342C12.8182 21.157 12.9548 19.676 13.0372 18.744V18.7238V18.7037C13.0572 18.6835 13.0572 18.6835 13.0572 18.6633C13.0771 18.6633 13.0771 18.6431 13.0771 18.6431L13.0971 18.623V18.6028C14.3659 17.4438 16.1943 15.7499 17.7531 14.3058C17.9855 14.0905 18.2118 13.8808 18.4294 13.6793L20.846 11.3991C20.8693 11.3755 20.8859 11.3449 20.8996 11.3196C20.9093 11.3017 20.9176 11.2864 20.9258 11.2781C20.9143 11.2897 20.9095 11.2946 20.9036 11.2967C20.8992 11.2982 20.8944 11.2982 20.8859 11.2982C20.8759 11.2982 20.8709 11.3033 20.8659 11.3083C20.8609 11.3134 20.8559 11.3184 20.846 11.3184C20.836 11.3285 20.821 11.3386 20.806 11.3487C20.791 11.3588 20.7761 11.3689 20.7661 11.379Z" fill="#2B3A51"/>
</svg>
