<svg width="32" height="32" viewBox="0 0 32 32" fill="none" xmlns="http://www.w3.org/2000/svg">
<path fill-rule="evenodd" clip-rule="evenodd" d="M15.9745 31.2484C24.6036 31.2484 31.5987 24.2532 31.5987 15.6242C31.5987 6.99519 24.6036 0 15.9745 0C7.34554 0 0.350342 6.99519 0.350342 15.6242C0.350342 24.2532 7.34554 31.2484 15.9745 31.2484ZM16.9553 21.5174H15.7604C15.7604 21.5174 13.1227 21.6615 10.7999 19.4755C8.26667 17.0916 6.02908 12.3602 6.02908 12.3602C6.02908 12.3602 5.90124 12.0502 6.04039 11.9C6.19779 11.7325 6.62739 11.7212 6.62739 11.7212L9.48417 11.7047C9.48417 11.7047 9.75376 11.7455 9.94682 11.8723C10.106 11.9782 10.1947 12.1761 10.1947 12.1761C10.1947 12.1761 10.6564 13.2309 11.2678 14.1868C12.4627 16.0498 13.0175 16.4578 13.4236 16.259C14.0141 15.9673 13.8376 13.6233 13.8376 13.6233C13.8376 13.6233 13.848 12.7725 13.541 12.3932C13.301 12.0997 12.8514 12.0146 12.654 11.9903C12.4914 11.9712 12.7558 11.6335 13.0975 11.4816C13.6115 11.2541 14.5194 11.2402 15.5925 11.2515C16.4283 11.2593 16.6691 11.3062 16.9961 11.3774C17.7541 11.5432 17.7305 12.0734 17.6795 13.2176C17.6643 13.5594 17.6466 13.9561 17.6466 14.4142C17.6466 14.5174 17.6433 14.6274 17.6399 14.7405C17.6222 15.3267 17.6019 15.9973 18.0284 16.2469C18.2475 16.3745 18.7832 16.266 20.1216 14.2111C20.7565 13.237 21.233 12.091 21.233 12.091C21.233 12.091 21.3365 11.887 21.4983 11.8002C21.6635 11.7108 21.8861 11.7377 21.8861 11.7377L24.8933 11.7212C24.8933 11.7212 25.7969 11.624 25.943 11.9921C26.0969 12.3793 25.6056 13.283 24.3768 14.7632C23.2164 16.1613 22.6494 16.6797 22.696 17.1354C22.7304 17.4717 23.0989 17.7739 23.8098 18.3704C25.295 19.6161 25.6879 20.268 25.7797 20.4205C25.7869 20.4323 25.7922 20.4411 25.796 20.447C26.4587 21.4384 25.0621 21.5166 25.0621 21.5166L22.3905 21.5513C22.3905 21.5513 21.8166 21.6537 21.0617 21.1849C20.6667 20.9399 20.2807 20.5401 19.9128 20.1591C19.3502 19.5763 18.8302 19.0377 18.3858 19.1647C17.6414 19.3774 17.6666 20.8272 17.6666 20.8272C17.6666 20.8272 17.671 21.1372 17.5014 21.3021C17.3162 21.4818 16.9553 21.5174 16.9553 21.5174Z" fill="#2B3A51"/>
</svg>
