<svg width="32" height="32" viewBox="0 0 32 32" fill="none" xmlns="http://www.w3.org/2000/svg">
<path fill-rule="evenodd" clip-rule="evenodd" d="M15.6752 31.2484C24.3042 31.2484 31.2994 24.2532 31.2994 15.6242C31.2994 6.99519 24.3042 0 15.6752 0C7.04615 0 0.0509567 6.99519 0.0509567 15.6242C0.0509567 24.2532 7.04615 31.2484 15.6752 31.2484ZM8.15672 9.80124C7.64581 9.90718 7.11615 10.3947 6.96616 10.8821C6.96616 10.8821 6.30057 12.578 6.30057 15.6247C6.30057 18.6714 6.96147 20.3485 6.96147 20.3485C7.10771 20.8519 7.63831 21.3366 8.13329 21.4435C8.13329 21.4435 10.9878 22.1869 15.6751 22.1869C20.3624 22.1869 23.1935 21.4481 23.1935 21.4481C23.7044 21.3422 24.234 20.8547 24.384 20.3673C24.384 20.3673 25.0496 18.6714 25.0496 15.6247C25.0496 12.578 24.3887 10.9009 24.3887 10.9009C24.2425 10.3975 23.7119 9.9128 23.2169 9.80593C23.2169 9.80593 20.3624 9.06253 15.6751 9.06253C10.9878 9.06253 8.15672 9.80124 8.15672 9.80124ZM19.4249 15.6247L13.8002 18.9058V12.3436L19.4249 15.6247Z" fill="white"/>
</svg>
