<svg width="32" height="32" viewBox="0 0 32 32" fill="none" xmlns="http://www.w3.org/2000/svg">
<path fill-rule="evenodd" clip-rule="evenodd" d="M16.3248 31.2484C24.9538 31.2484 31.949 24.2532 31.949 15.6242C31.949 6.99519 24.9538 0 16.3248 0C7.69583 0 0.700638 6.99519 0.700638 15.6242C0.700638 24.2532 7.69583 31.2484 16.3248 31.2484ZM15.1329 12.7783C15.5111 12.6278 15.9155 12.5543 16.3225 12.562C17.1245 12.5772 17.8885 12.9065 18.4504 13.4791C19.0122 14.0518 19.3269 14.8221 19.3269 15.6244C19.3269 16.4267 19.0122 17.197 18.4504 17.7696C17.8885 18.3423 17.1245 18.6716 16.3225 18.6868C15.9155 18.6944 15.5111 18.6209 15.1329 18.4705C14.7547 18.32 14.4103 18.0957 14.1198 17.8106C13.8292 17.5254 13.5985 17.1852 13.4409 16.8099C13.2834 16.4345 13.2022 16.0315 13.2022 15.6244C13.2022 15.2173 13.2834 14.8143 13.4409 14.4389C13.5985 14.0635 13.8292 13.7233 14.1198 13.4382C14.4103 13.1531 14.7547 12.9287 15.1329 12.7783ZM20.4953 12.0408C20.628 12.0959 20.7702 12.1243 20.9138 12.1244C21.2039 12.1247 21.4822 12.0098 21.6875 11.8048C21.8928 11.5999 22.0083 11.3218 22.0086 11.0316C22.0089 10.7415 21.8939 10.4632 21.689 10.2578C21.4841 10.0525 21.206 9.93694 20.916 9.93665C20.7724 9.93651 20.6301 9.96466 20.4974 10.0195C20.3646 10.0743 20.244 10.1548 20.1423 10.2563C20.0406 10.3577 19.96 10.4783 19.9049 10.6109C19.8498 10.7436 19.8213 10.8858 19.8212 11.0295C19.8211 11.1731 19.8492 11.3154 19.904 11.4482C19.9589 11.5809 20.0393 11.7016 20.1408 11.8033C20.2422 11.905 20.3627 11.9857 20.4953 12.0408ZM14.6283 19.6874C15.167 19.9032 15.7433 20.0096 16.3236 20.0005L16.3225 20.0016C17.4827 20.0019 18.5956 19.5412 19.4162 18.7208C20.2369 17.9004 20.698 16.7876 20.6983 15.6271C20.6986 14.4666 20.238 13.3536 19.4178 12.5328C18.5975 11.712 17.4849 11.2507 16.3247 11.2504C15.7444 11.2412 15.1681 11.3475 14.6293 11.5632C14.0906 11.7788 13.6001 12.0996 13.1864 12.5067C12.7728 12.9138 12.4443 13.3992 12.22 13.9345C11.9958 14.4699 11.8802 15.0445 11.8802 15.6249C11.8801 16.2054 11.9955 16.78 12.2196 17.3154C12.4437 17.8508 12.7721 18.3362 13.1857 18.7435C13.5992 19.1507 14.0896 19.4715 14.6283 19.6874ZM12.4705 6.87482H20.1766C20.8196 6.87468 21.4563 7.00122 22.0504 7.24722C22.6444 7.49322 23.1842 7.85385 23.6389 8.30853C24.0936 8.76321 24.4543 9.30302 24.7004 9.89713C24.9465 10.4913 25.0731 11.128 25.0731 11.7711V19.4776C25.0731 20.1207 24.9465 20.7575 24.7004 21.3516C24.4543 21.9457 24.0936 22.4855 23.6389 22.9402C23.1842 23.3949 22.6444 23.7555 22.0504 24.0015C21.4563 24.2475 20.8196 24.3741 20.1766 24.3739H12.4705C11.8275 24.3741 11.1908 24.2475 10.5968 24.0015C10.0027 23.7555 9.46291 23.3949 9.00822 22.9402C8.55352 22.4855 8.19283 21.9457 7.94675 21.3516C7.70066 20.7575 7.57401 20.1207 7.57401 19.4776V11.7711C7.57401 11.128 7.70066 10.4913 7.94675 9.89713C8.19283 9.30302 8.55352 8.76321 9.00822 8.30853C9.46291 7.85385 10.0027 7.49322 10.5968 7.24722C11.1908 7.00122 11.8275 6.87468 12.4705 6.87482Z" fill="white"/>
</svg>
