<svg width="32" height="32" viewBox="0 0 32 32" fill="none" xmlns="http://www.w3.org/2000/svg">
<g opacity="0.4" filter="url(#filter0_i_11_72)">
<path fill-rule="evenodd" clip-rule="evenodd" d="M16.0254 31.2484C24.6545 31.2484 31.6497 24.2532 31.6497 15.6242C31.6497 6.99519 24.6545 0 16.0254 0C7.39644 0 0.401245 6.99519 0.401245 15.6242C0.401245 24.2532 7.39644 31.2484 16.0254 31.2484ZM22.8231 7.96883C23.5421 7.74687 23.9615 7.76705 24.2211 7.98901C24.5207 8.25132 24.4807 8.71542 24.4208 9.11899C24.4125 9.1775 24.4008 9.24985 24.3871 9.33462C24.3677 9.4545 24.3443 9.59921 24.3209 9.76469C24.2654 10.0788 24.1991 10.4692 24.1233 10.9156C23.9263 12.0755 23.6652 13.6135 23.3623 15.1725C22.923 17.3719 22.3837 19.9951 21.7047 22.9815V22.9815C21.6595 23.1413 21.6352 23.3075 21.5845 23.4657C21.4495 23.8869 21.1805 24.1938 20.826 24.3132C20.7062 24.3536 20.5863 24.3738 20.4665 24.3738C20.107 24.3738 19.7076 24.1922 19.3281 23.8693L19.3082 23.8491C19.2432 23.7835 18.9209 23.5145 18.4552 23.1343C16.994 21.9414 14.9357 22.1897 13.4766 23.385V23.385C13.3368 23.4859 13.177 23.5464 13.0372 23.5464C12.9373 23.5464 12.8575 23.5263 12.7975 23.4859V23.4859C12.721 23.4473 12.6603 23.383 12.5957 23.3266C12.473 23.2195 12.3192 23.0364 12.2583 22.7595C12.2125 22.5743 11.5122 20.1809 11.0961 18.759V18.759C10.9238 18.1699 10.4693 17.7042 9.88818 17.5064C8.84355 17.1507 7.32727 16.6132 6.88607 16.3832C6.3069 16.1208 6.00733 15.798 6.0273 15.4348C6.06725 14.8698 6.88607 14.5066 7.26552 14.3855C7.60503 14.2241 10.4609 12.9327 13.9759 11.4597C17.8902 9.82523 22.3238 8.13025 22.8231 7.96883ZM20.806 11.3487C20.7783 11.3673 20.7521 11.3883 20.7244 11.4069L12.9823 16.5889C11.946 17.2826 11.4794 18.5706 11.8287 19.7678V19.7678C12.1968 21.0294 12.6017 22.4169 12.6716 22.6396C12.6757 22.6524 12.6777 22.6654 12.6777 22.6788V22.6788C12.6917 22.5267 12.7088 22.3418 12.728 22.1342C12.8182 21.157 12.9548 19.676 13.0372 18.744V18.7238V18.7175C13.0372 18.7086 13.0408 18.7002 13.0468 18.6938C13.05 18.6904 13.0522 18.6878 13.0537 18.6853C13.0602 18.6746 13.0742 18.6595 13.0767 18.6473V18.6473C13.0778 18.6414 13.0795 18.6408 13.0837 18.6365L13.0903 18.6299C13.0947 18.6254 13.0971 18.6195 13.0971 18.6132V18.6132C13.0971 18.6066 13.0998 18.6003 13.1047 18.5958C14.3732 17.437 16.1975 15.747 17.7531 14.3058C17.9855 14.0905 18.2118 13.8808 18.4294 13.6793L20.846 11.3991C20.8693 11.3755 20.8859 11.3449 20.8996 11.3196C20.9093 11.3017 20.9176 11.2864 20.9258 11.2781C20.9143 11.2897 20.9095 11.2946 20.9036 11.2967C20.8992 11.2982 20.8944 11.2982 20.8859 11.2982C20.8759 11.2982 20.8709 11.3033 20.8659 11.3083V11.3083C20.8555 11.3189 20.8402 11.3245 20.8282 11.3333C20.8213 11.3384 20.8136 11.3435 20.806 11.3487V11.3487Z" fill="#222222"/>
</g>
<defs>
<filter id="filter0_i_11_72" x="0.401245" y="0" width="32.2484" height="32.2484" filterUnits="userSpaceOnUse" color-interpolation-filters="sRGB">
<feFlood flood-opacity="0" result="BackgroundImageFix"/>
<feBlend mode="normal" in="SourceGraphic" in2="BackgroundImageFix" result="shape"/>
<feColorMatrix in="SourceAlpha" type="matrix" values="0 0 0 0 0 0 0 0 0 0 0 0 0 0 0 0 0 0 127 0" result="hardAlpha"/>
<feOffset dx="1" dy="1"/>
<feGaussianBlur stdDeviation="2.5"/>
<feComposite in2="hardAlpha" operator="arithmetic" k2="-1" k3="1"/>
<feColorMatrix type="matrix" values="0 0 0 0 0 0 0 0 0 0 0 0 0 0 0 0 0 0 0.5 0"/>
<feBlend mode="normal" in2="shape" result="effect1_innerShadow_11_72"/>
</filter>
</defs>
</svg>
