<svg width="32" height="32" viewBox="0 0 32 32" fill="none" xmlns="http://www.w3.org/2000/svg">
<path fill-rule="evenodd" clip-rule="evenodd" d="M16.3758 31.2484C25.0048 31.2484 32 24.2532 32 15.6242C32 6.99519 25.0048 0 16.3758 0C7.74678 0 0.751587 6.99519 0.751587 15.6242C0.751587 24.2532 7.74678 31.2484 16.3758 31.2484ZM24.2803 13.6481C24.1346 13.6623 23.9884 13.6697 23.842 13.6704C23.0515 13.6704 22.2735 13.4738 21.578 13.0979C20.8826 12.7221 20.2918 12.179 19.8588 11.5177V18.8479C19.8588 19.9195 19.5411 20.9669 18.9457 21.8579C18.3504 22.7488 17.5043 23.4433 16.5143 23.8534C15.5244 24.2634 14.435 24.3707 13.384 24.1616C12.3331 23.9526 11.3678 23.4366 10.6101 22.6789C9.85236 21.9212 9.33637 20.9558 9.12733 19.905C8.91829 18.854 9.02557 17.7646 9.43563 16.7747C9.84569 15.7847 10.5401 14.9386 11.4311 14.3432C12.322 13.7479 13.3695 13.4302 14.4411 13.4302C14.5273 13.4302 14.612 13.4361 14.6967 13.442C14.7231 13.4438 14.7495 13.4456 14.7759 13.4473V16.1171C14.7474 16.1137 14.719 16.1098 14.6906 16.106C14.6083 16.0947 14.5261 16.0835 14.4411 16.0835C13.7076 16.0835 13.0044 16.3748 12.4857 16.8934C11.9672 17.4119 11.6758 18.1153 11.6758 18.8486C11.6758 19.5819 11.9672 20.2853 12.4857 20.8038C13.0044 21.3224 13.7076 21.6137 14.4411 21.6137C15.9685 21.6137 17.3173 20.4104 17.3173 18.8829L17.344 6.4335H19.8982C20.0149 7.54328 20.518 8.57674 21.3195 9.3532C22.121 10.1296 23.1699 10.5996 24.2828 10.6809V13.6481H24.2803Z" fill="#2B3A51"/>
</svg>
