<svg width="32" height="32" viewBox="0 0 32 32" fill="none" xmlns="http://www.w3.org/2000/svg">
<g opacity="0.4" filter="url(#filter0_i_11_59)">
<path fill-rule="evenodd" clip-rule="evenodd" d="M15.9745 31.2484C24.6036 31.2484 31.5987 24.2532 31.5987 15.6242C31.5987 6.99519 24.6036 0 15.9745 0C7.34554 0 0.350342 6.99519 0.350342 15.6242C0.350342 24.2532 7.34554 31.2484 15.9745 31.2484ZM17.4194 21.3664C17.1439 21.5439 16.7911 21.5174 16.4633 21.5174H16.0334C15.8514 21.5174 15.6701 21.5231 15.4883 21.5158C14.7567 21.4866 12.6757 21.2408 10.7999 19.4755C8.597 17.4025 6.61766 13.5542 6.13892 12.5858C6.06425 12.4348 5.98118 12.2826 5.97574 12.1143C5.97324 12.037 5.98761 11.957 6.04039 11.9C6.14922 11.7842 6.38819 11.743 6.5253 11.7287C6.59323 11.7216 6.66155 11.721 6.72985 11.7206L8.98897 11.7076C9.3186 11.7057 9.67126 11.6914 9.94682 11.8723V11.8723C10.0624 11.9492 10.1409 12.0747 10.1751 12.1376C10.1889 12.1629 10.2002 12.1887 10.212 12.215C10.3011 12.4137 10.7257 13.3391 11.2678 14.1868C12.4627 16.0498 13.0175 16.4578 13.4236 16.259C13.8526 16.0471 13.8768 14.7523 13.8579 14.0597C13.85 13.7683 13.8458 13.4764 13.8093 13.1872C13.7755 12.9198 13.7018 12.5918 13.541 12.3932C13.301 12.0997 12.8514 12.0146 12.654 11.9903C12.4914 11.9712 12.7558 11.6335 13.0975 11.4816C13.6115 11.2541 14.5194 11.2402 15.5925 11.2515C16.4283 11.2593 16.6691 11.3062 16.9961 11.3774C17.7541 11.5432 17.7305 12.0734 17.6795 13.2176C17.6643 13.5594 17.6466 13.9561 17.6466 14.4142C17.6466 14.5174 17.6433 14.6274 17.6399 14.7405C17.6222 15.3267 17.6019 15.9973 18.0284 16.2469C18.2475 16.3745 18.7832 16.266 20.1216 14.2111C20.541 13.5676 20.8914 12.849 21.0808 12.4354C21.1854 12.2071 21.2648 11.9417 21.4793 11.8111C21.4855 11.8073 21.4918 11.8037 21.4983 11.8002V11.8002C21.7315 11.674 22.0191 11.737 22.2843 11.7355L24.3844 11.724C24.7235 11.7221 25.0644 11.6857 25.4015 11.7224C25.6343 11.7476 25.8737 11.8176 25.943 11.9921C26.0969 12.3793 25.6056 13.283 24.3768 14.7632C23.2164 16.1613 22.6494 16.6797 22.696 17.1354C22.7304 17.4717 23.0989 17.7739 23.8098 18.3704C25.295 19.6161 25.6879 20.268 25.7797 20.4205C25.7869 20.4323 25.7922 20.4411 25.796 20.447C26.291 21.1875 25.637 21.4185 25.2744 21.488C25.1339 21.5149 24.9906 21.5175 24.8476 21.5193L23.2104 21.5406C22.6647 21.5477 22.0999 21.6209 21.5853 21.4391C21.426 21.3828 21.2495 21.3015 21.0617 21.1849C20.6667 20.9399 20.2807 20.5401 19.9128 20.1591C19.3502 19.5763 18.8302 19.0377 18.3858 19.1647C17.6885 19.364 17.6665 20.6488 17.6665 20.8105C17.6665 20.8217 17.6667 20.8327 17.6664 20.8439C17.6645 20.9103 17.6475 21.16 17.5014 21.3021C17.4768 21.326 17.449 21.3474 17.4194 21.3664Z" fill="#222222"/>
</g>
<defs>
<filter id="filter0_i_11_59" x="0.350342" y="0" width="32.2484" height="32.2484" filterUnits="userSpaceOnUse" color-interpolation-filters="sRGB">
<feFlood flood-opacity="0" result="BackgroundImageFix"/>
<feBlend mode="normal" in="SourceGraphic" in2="BackgroundImageFix" result="shape"/>
<feColorMatrix in="SourceAlpha" type="matrix" values="0 0 0 0 0 0 0 0 0 0 0 0 0 0 0 0 0 0 127 0" result="hardAlpha"/>
<feOffset dx="1" dy="1"/>
<feGaussianBlur stdDeviation="2.5"/>
<feComposite in2="hardAlpha" operator="arithmetic" k2="-1" k3="1"/>
<feColorMatrix type="matrix" values="0 0 0 0 0 0 0 0 0 0 0 0 0 0 0 0 0 0 0.5 0"/>
<feBlend mode="normal" in2="shape" result="effect1_innerShadow_11_59"/>
</filter>
</defs>
</svg>
