<svg width="42" height="42" viewBox="0 0 42 42" fill="none" xmlns="http://www.w3.org/2000/svg">
<g opacity="0.3">
<path d="M33.0894 29.0122C32.9685 29.0122 32.8251 29.094 32.6639 29.2552C32.178 29.7411 31.4893 29.9841 30.598 29.9841C30.0303 29.9841 29.555 29.6807 29.171 29.0726C28.7858 28.4646 28.6139 27.7167 28.6542 26.8254L28.9577 13.8258C28.998 11.7599 28.4314 10.0899 27.2569 8.8146C26.0823 7.53928 24.5237 6.90163 22.5799 6.90163C21.2833 6.90163 19.6737 7.33779 17.7513 8.20776C15.8276 9.0789 14.1375 10.1421 12.6796 11.3972C10.897 12.8942 10.0069 14.2714 10.0069 15.5266C10.0069 15.8099 10.0875 16.0528 10.2499 16.2555C10.4111 16.4582 10.6339 16.5589 10.9184 16.5589C11.7279 16.5589 12.7507 16.2662 13.9858 15.6783C15.2208 15.0916 15.8383 14.595 15.8383 14.1896L15.7778 12.6714C15.7778 11.9827 15.9189 11.5169 16.2033 11.274C16.5269 10.9504 16.9726 10.6873 17.5403 10.4846C18.1068 10.2819 18.6532 10.1812 19.1807 10.1812C20.1525 10.1812 20.9016 10.5261 21.4279 11.2135C21.9541 11.9021 22.1971 12.8136 22.1568 13.9467L22.0359 17.5308C22.0359 18.3415 21.9446 18.8772 21.7621 19.1404C21.5796 19.4047 21.083 19.6974 20.2734 20.021L14.6246 22.4507C12.9238 23.1797 11.6876 23.9797 10.9196 24.8496C10.1503 25.7208 9.76514 26.8243 9.76514 28.16C9.76514 29.5373 10.3423 30.7924 11.4968 31.9255C12.6512 33.0586 13.9573 33.6263 15.4152 33.6263C16.6703 33.6263 17.8544 33.362 18.9685 32.837C20.0814 32.3107 21.307 31.4609 22.6439 30.2863H22.8264C23.5554 31.4206 24.3341 32.2609 25.1649 32.8073C25.9946 33.3537 26.957 33.6275 28.0498 33.6275C28.8593 33.6275 29.6901 33.4343 30.54 33.0503C31.3898 32.6663 32.159 32.1092 32.8476 31.3803C33.4948 30.7332 33.8195 30.1868 33.8195 29.7399C33.8195 29.5373 33.7484 29.3666 33.6073 29.2232C33.4627 29.0833 33.2909 29.0122 33.0894 29.0122ZM21.9731 23.1192L21.851 27.0068C21.8107 27.9787 21.608 28.6068 21.243 28.8901C20.6349 29.619 19.8254 29.9841 18.8132 29.9841C18.1246 29.9841 17.5379 29.7411 17.052 29.2552C16.566 28.7692 16.323 28 16.323 26.9475C16.323 25.8535 16.636 24.9729 17.2641 24.3056C17.8911 23.6372 18.9744 22.9793 20.514 22.331C20.8779 22.1698 21.1825 22.088 21.4255 22.088C21.7894 22.088 21.9719 22.3524 21.9719 22.8774V23.1192H21.9731Z" fill="white"/>
<path d="M21 0C9.42025 0 0 9.42025 0 21C0 32.5798 9.42025 42 21 42C32.5798 42 42 32.5798 42 21C42 9.42025 32.5798 0 21 0ZM21 39.9175C10.5687 39.9175 2.08246 31.4313 2.08246 21C2.08246 10.5687 10.5687 2.08246 21 2.08246C31.4313 2.08246 39.9175 10.5687 39.9175 21C39.9175 31.4313 31.4313 39.9175 21 39.9175Z" fill="white"/>
</g>
</svg>
