<svg width="32" height="32" viewBox="0 0 32 32" fill="none" xmlns="http://www.w3.org/2000/svg">
<path fill-rule="evenodd" clip-rule="evenodd" d="M15.6242 31.2484C24.2532 31.2484 31.2484 24.2532 31.2484 15.6242C31.2484 6.99519 24.2532 0 15.6242 0C6.99519 0 0 6.99519 0 15.6242C0 24.2532 6.99519 31.2484 15.6242 31.2484ZM13.9059 22.2255C13.9059 23.0668 14.5879 23.7489 15.4292 23.7489C16.2706 23.7489 16.9526 23.0668 16.9526 22.2255V17.1476C16.9526 16.3063 17.6346 15.6243 18.476 15.6243C19.3173 15.6243 19.9993 14.9422 19.9993 14.1009C19.9993 13.2596 19.3173 12.5775 18.476 12.5775H17.9682C17.4073 12.5775 16.9526 12.1229 16.9526 11.562C16.9526 10.8318 17.3548 10.5464 18.476 10.5464C19.3159 10.5464 19.9954 9.85864 19.9907 9.01872C19.9859 8.18078 19.3053 7.49968 18.4673 7.49968H17.5853C14.7062 7.49968 13.9059 8.26136 13.9059 10.5464V11.562C13.9059 12.1229 13.4512 12.5775 12.8903 12.5775C12.3294 12.5775 11.8747 13.0322 11.8747 13.5931V14.6128C11.8747 15.1733 12.3297 15.6274 12.8903 15.6263C13.4509 15.6252 13.9059 16.0793 13.9059 16.6398V22.2255Z" fill="#222222"/>
</svg>
