<svg width="32" height="32" viewBox="0 0 32 32" fill="none" xmlns="http://www.w3.org/2000/svg">
<path fill-rule="evenodd" clip-rule="evenodd" d="M16.0255 31.2484C24.6545 31.2484 31.6497 24.2532 31.6497 15.6242C31.6497 6.99519 24.6545 0 16.0255 0C7.39647 0 0.401276 6.99519 0.401276 15.6242C0.401276 24.2532 7.39647 31.2484 16.0255 31.2484ZM22.8231 7.96883C23.5421 7.74687 23.9615 7.76705 24.2211 7.98901C24.5207 8.25132 24.4807 8.71542 24.4208 9.11899C24.4126 9.1775 24.4009 9.24985 24.3872 9.33462C24.3678 9.4545 24.3444 9.59921 24.321 9.76469C24.2655 10.0787 24.1992 10.4691 24.1234 10.9154C23.9264 12.0753 23.6652 13.6134 23.3624 15.1725C22.923 17.3719 22.3838 19.9951 21.7047 22.9815C21.6648 23.1227 21.6448 23.2034 21.6448 23.2236C21.545 23.7684 21.2454 24.172 20.826 24.3132C20.7062 24.3536 20.5863 24.3738 20.4665 24.3738C20.107 24.3738 19.7076 24.1922 19.3282 23.8693L19.3082 23.8491C19.1484 23.6877 17.4309 22.2954 15.8532 21.0443C15.4937 21.4277 14.2155 22.7797 13.4766 23.385C13.3368 23.4859 13.177 23.5464 13.0372 23.5464C12.9374 23.5464 12.8575 23.5263 12.7976 23.4859C12.7576 23.4657 12.7177 23.4254 12.6977 23.4052C12.5779 23.3245 12.3382 23.1227 12.2584 22.7595C12.2125 22.5744 11.5129 20.1832 11.0968 18.7611C10.9687 18.3233 10.8674 17.9773 10.8204 17.8158C10.2413 17.6342 7.5052 16.706 6.88609 16.3832C6.30693 16.1208 6.00737 15.798 6.02733 15.4348C6.06728 14.8698 6.88609 14.5066 7.26555 14.3855C7.60506 14.2241 10.461 12.9327 13.9759 11.4597C17.8902 9.82523 22.3239 8.13025 22.8231 7.96883ZM20.7661 11.379L11.2398 17.7553C11.336 18.0791 11.5736 18.8934 11.8288 19.7681C12.2097 21.0736 12.6299 22.5136 12.6777 22.6586V22.6788C12.6916 22.5288 12.7083 22.347 12.7272 22.1428C12.8174 21.1657 12.9546 19.6787 13.0372 18.744V18.7238V18.7037C13.0487 18.6921 13.0536 18.6871 13.0557 18.6812C13.0572 18.6768 13.0572 18.6719 13.0572 18.6633C13.0772 18.6633 13.0772 18.6431 13.0772 18.6431L13.0972 18.623V18.6028C14.3655 17.4442 16.1931 15.7511 17.7515 14.3073C17.9844 14.0915 18.2113 13.8813 18.4295 13.6793L20.846 11.3991C20.8694 11.3755 20.8859 11.3449 20.8996 11.3196C20.9093 11.3017 20.9176 11.2864 20.9259 11.2781C20.9144 11.2897 20.9095 11.2946 20.9036 11.2967C20.8993 11.2982 20.8944 11.2982 20.8859 11.2982C20.8759 11.2982 20.8709 11.3033 20.866 11.3083C20.861 11.3134 20.856 11.3184 20.846 11.3184C20.836 11.3285 20.821 11.3386 20.806 11.3487C20.7911 11.3588 20.7761 11.3689 20.7661 11.379Z" fill="white"/>
</svg>
