<svg width="32" height="32" viewBox="0 0 32 32" fill="none" xmlns="http://www.w3.org/2000/svg">
<path fill-rule="evenodd" clip-rule="evenodd" d="M15.6751 31.2484C24.3041 31.2484 31.2993 24.2532 31.2993 15.6242C31.2993 6.99519 24.3041 0 15.6751 0C7.0461 0 0.0509033 6.99519 0.0509033 15.6242C0.0509033 24.2532 7.0461 31.2484 15.6751 31.2484ZM8.40198 9.74342C8.23671 9.78023 8.07075 9.81177 7.91507 9.87835C7.60734 10.01 7.31586 10.26 7.12977 10.5431C6.9915 10.7535 6.91997 10.9984 6.84864 11.2398C6.65756 11.8864 6.30051 13.3932 6.30051 15.6247C6.30051 17.7619 6.62572 19.2252 6.81989 19.9083C6.90435 20.2055 6.98844 20.5097 7.16725 20.7616C7.35956 21.0326 7.64248 21.2628 7.93251 21.3807C8.06257 21.4336 8.20117 21.4612 8.33812 21.4922C9.06933 21.6575 11.7196 22.1869 15.675 22.1869C19.5577 22.1869 22.1668 21.68 22.9481 21.506C23.1134 21.4692 23.2793 21.4376 23.435 21.371C23.7427 21.2394 24.0342 20.9894 24.2203 20.7063C24.3586 20.4959 24.4301 20.251 24.5014 20.0096C24.6925 19.3629 25.0496 17.8561 25.0496 15.6247C25.0496 13.4875 24.7243 12.0242 24.5302 11.3411C24.4457 11.0439 24.3616 10.7397 24.1828 10.4878C23.9905 10.2168 23.7076 9.98664 23.4176 9.86872C23.2875 9.81584 23.1489 9.78818 23.0119 9.75722C22.2807 9.5919 19.6304 9.06253 15.675 9.06253C11.7923 9.06253 9.18327 9.56941 8.40198 9.74342ZM16.6343 13.9969C17.8809 14.7241 17.8809 16.5253 16.6343 17.2525C15.3779 17.9854 13.8001 17.0792 13.8001 15.6247C13.8001 14.1702 15.3779 13.264 16.6343 13.9969Z" fill="#222222"/>
</svg>
